<svg width="16" height="16" viewBox="0 0 16 16" fill="none" xmlns="http://www.w3.org/2000/svg">
  <path fill-rule="evenodd" clip-rule="evenodd" d="M8 0C3.58 0 0 3.58 0 8C0 11.54 2.29 14.5 5.47 15.54C5.87 15.63 6 15.35 6 15.11C6 14.89 6 14.39 6 13.72C4 14.09 3.48 12.97 3.48 12.97C3.09 11.97 2.5 11.7 2.5 11.7C1.69 11.18 2.53 11.19 2.53 11.19C3.39 11.25 3.87 12.09 3.87 12.09C4.64 13.34 5.87 12.96 6.36 12.74C6.46 12.16 6.71 11.78 7 11.56C5.14 11.33 3.09 10.66 3.09 7.61C3.09 6.74 3.39 6.07 3.91 5.58C3.82 5.36 3.57 4.52 3.98 3.42C3.98 3.42 4.62 3.19 6 4.26C6.66 4.07 7.34 4 8 4C8.66 4 9.34 4.07 10 4.26C11.38 3.19 12.02 3.42 12.02 3.42C12.43 4.52 12.18 5.36 12.09 5.58C12.61 6.07 12.91 6.74 12.91 7.61C12.91 10.66 10.86 11.33 9 11.56C9.29 11.78 9.54 12.16 9.64 12.74C10.13 12.96 11.36 13.34 12.13 12.09C12.13 12.09 12.61 11.25 13.47 11.19C13.47 11.19 14.31 11.18 13.5 11.7C13.5 11.7 12.91 11.97 12.52 12.97C12.52 12.97 12 14.09 10 13.72C10 14.39 10 14.89 10 15.11C10 15.35 10.13 15.63 10.53 15.54C13.71 14.5 16 11.54 16 8C16 3.58 12.42 0 8 0Z" fill="white"/>
</svg>
